<mxfile host="app.diagrams.net" modified="2023-10-14T17:27:05.148Z" agent="Mozilla/5.0 (Windows NT 10.0; Win64; x64) AppleWebKit/537.36 (KHTML, like Gecko) Chrome/116.0.5845.967 YaBrowser/23.9.1.967 Yowser/2.5 Safari/537.36" etag="p_OZytk1M1WTLbIV2LS0" version="22.0.4" type="device">
  <diagram name="Страница — 1" id="Vmy-qQRsAyJ8WCtr74mu">
    <mxGraphModel dx="2327" dy="821" grid="1" gridSize="10" guides="1" tooltips="1" connect="1" arrows="1" fold="1" page="1" pageScale="1" pageWidth="827" pageHeight="1169" math="0" shadow="0">
      <root>
        <mxCell id="0" />
        <mxCell id="1" parent="0" />
        <mxCell id="rGS-oAtr6ewYJkWfsGXD-6" value="Create order" style="shape=umlFrame;whiteSpace=wrap;html=1;pointerEvents=0;fillColor=#CCCCCC;shadow=0;strokeColor=default;swimlaneFillColor=#E6E6E6;width=90;height=30;" parent="1" vertex="1">
          <mxGeometry x="-120" y="470" width="980" height="450" as="geometry" />
        </mxCell>
        <mxCell id="rGS-oAtr6ewYJkWfsGXD-4" value="Get idempotency key" style="shape=umlFrame;whiteSpace=wrap;html=1;pointerEvents=0;fillColor=#CCCCCC;shadow=0;strokeColor=default;swimlaneFillColor=#E6E6E6;width=140;height=20;" parent="1" vertex="1">
          <mxGeometry x="-120" y="160" width="980" height="270" as="geometry" />
        </mxCell>
        <mxCell id="GNlN6wgSxDxKtk2pPhx4-1" value="" style="shape=umlLifeline;perimeter=lifelinePerimeter;whiteSpace=wrap;html=1;container=1;dropTarget=0;collapsible=0;recursiveResize=0;outlineConnect=0;portConstraint=eastwest;newEdgeStyle={&quot;curved&quot;:0,&quot;rounded&quot;:0};participant=umlActor;" parent="1" vertex="1">
          <mxGeometry x="30" y="80" width="20" height="830" as="geometry" />
        </mxCell>
        <mxCell id="GNlN6wgSxDxKtk2pPhx4-4" value="order-service" style="shape=umlLifeline;perimeter=lifelinePerimeter;whiteSpace=wrap;html=1;container=1;dropTarget=0;collapsible=0;recursiveResize=0;outlineConnect=0;portConstraint=eastwest;newEdgeStyle={&quot;curved&quot;:0,&quot;rounded&quot;:0};" parent="1" vertex="1">
          <mxGeometry x="190" y="80" width="100" height="830" as="geometry" />
        </mxCell>
        <mxCell id="j03y-zVPpwKG8_fTDFgy-7" value="" style="html=1;points=[[0,0,0,0,5],[0,1,0,0,-5],[1,0,0,0,5],[1,1,0,0,-5]];perimeter=orthogonalPerimeter;outlineConnect=0;targetShapes=umlLifeline;portConstraint=eastwest;newEdgeStyle={&quot;curved&quot;:0,&quot;rounded&quot;:0};" parent="GNlN6wgSxDxKtk2pPhx4-4" vertex="1">
          <mxGeometry x="45" y="100" width="10" height="240" as="geometry" />
        </mxCell>
        <mxCell id="rGS-oAtr6ewYJkWfsGXD-3" value="" style="html=1;points=[[0,0,0,0,5],[0,1,0,0,-5],[1,0,0,0,5],[1,1,0,0,-5]];perimeter=orthogonalPerimeter;outlineConnect=0;targetShapes=umlLifeline;portConstraint=eastwest;newEdgeStyle={&quot;curved&quot;:0,&quot;rounded&quot;:0};" parent="GNlN6wgSxDxKtk2pPhx4-4" vertex="1">
          <mxGeometry x="45" y="410" width="10" height="400" as="geometry" />
        </mxCell>
        <mxCell id="GNlN6wgSxDxKtk2pPhx4-6" value="GET /orders" style="html=1;verticalAlign=bottom;endArrow=block;curved=0;rounded=0;" parent="1" edge="1">
          <mxGeometry width="80" relative="1" as="geometry">
            <mxPoint x="40" y="200" as="sourcePoint" />
            <mxPoint x="235" y="200" as="targetPoint" />
          </mxGeometry>
        </mxCell>
        <mxCell id="GNlN6wgSxDxKtk2pPhx4-8" value="200 OK&lt;br&gt;idempotency key&lt;br&gt;and&lt;br&gt;a list of orders" style="html=1;verticalAlign=bottom;endArrow=open;dashed=1;endSize=8;curved=0;rounded=0;" parent="1" edge="1">
          <mxGeometry x="0.1003" relative="1" as="geometry">
            <mxPoint x="230" y="400" as="sourcePoint" />
            <mxPoint x="39.66666666666663" y="400" as="targetPoint" />
            <mxPoint as="offset" />
          </mxGeometry>
        </mxCell>
        <mxCell id="rGS-oAtr6ewYJkWfsGXD-1" value="POST /orders" style="html=1;verticalAlign=bottom;endArrow=block;curved=0;rounded=0;" parent="1" edge="1">
          <mxGeometry width="80" relative="1" as="geometry">
            <mxPoint x="40" y="520" as="sourcePoint" />
            <mxPoint x="235" y="520" as="targetPoint" />
          </mxGeometry>
        </mxCell>
        <mxCell id="rGS-oAtr6ewYJkWfsGXD-2" value="200 OK" style="html=1;verticalAlign=bottom;endArrow=open;dashed=1;endSize=8;curved=0;rounded=0;" parent="1" edge="1" target="GNlN6wgSxDxKtk2pPhx4-1" source="rGS-oAtr6ewYJkWfsGXD-3">
          <mxGeometry x="0.1003" relative="1" as="geometry">
            <mxPoint x="230.33" y="820" as="sourcePoint" />
            <mxPoint x="39.99666666666663" y="820" as="targetPoint" />
            <mxPoint as="offset" />
            <Array as="points">
              <mxPoint x="160" y="725" />
            </Array>
          </mxGeometry>
        </mxCell>
        <mxCell id="rGS-oAtr6ewYJkWfsGXD-8" value="&#39;idempotency_key_pool&#39; table" style="shape=umlLifeline;perimeter=lifelinePerimeter;whiteSpace=wrap;html=1;container=1;dropTarget=0;collapsible=0;recursiveResize=0;outlineConnect=0;portConstraint=eastwest;newEdgeStyle={&quot;curved&quot;:0,&quot;rounded&quot;:0};" parent="1" vertex="1">
          <mxGeometry x="640" y="80" width="200" height="830" as="geometry" />
        </mxCell>
        <mxCell id="rGS-oAtr6ewYJkWfsGXD-9" value="" style="html=1;points=[[0,0,0,0,5],[0,1,0,0,-5],[1,0,0,0,5],[1,1,0,0,-5]];perimeter=orthogonalPerimeter;outlineConnect=0;targetShapes=umlLifeline;portConstraint=eastwest;newEdgeStyle={&quot;curved&quot;:0,&quot;rounded&quot;:0};" parent="rGS-oAtr6ewYJkWfsGXD-8" vertex="1">
          <mxGeometry x="95" y="190" width="10" height="140" as="geometry" />
        </mxCell>
        <mxCell id="rGS-oAtr6ewYJkWfsGXD-14" value="&#39;orders&#39; table" style="shape=umlLifeline;perimeter=lifelinePerimeter;whiteSpace=wrap;html=1;container=1;dropTarget=0;collapsible=0;recursiveResize=0;outlineConnect=0;portConstraint=eastwest;newEdgeStyle={&quot;curved&quot;:0,&quot;rounded&quot;:0};" parent="1" vertex="1">
          <mxGeometry x="390" y="80" width="200" height="830" as="geometry" />
        </mxCell>
        <mxCell id="rGS-oAtr6ewYJkWfsGXD-15" value="" style="html=1;points=[[0,0,0,0,5],[0,1,0,0,-5],[1,0,0,0,5],[1,1,0,0,-5]];perimeter=orthogonalPerimeter;outlineConnect=0;targetShapes=umlLifeline;portConstraint=eastwest;newEdgeStyle={&quot;curved&quot;:0,&quot;rounded&quot;:0};" parent="rGS-oAtr6ewYJkWfsGXD-14" vertex="1">
          <mxGeometry x="95" y="100" width="10" height="140" as="geometry" />
        </mxCell>
        <mxCell id="rGS-oAtr6ewYJkWfsGXD-20" value="" style="html=1;points=[[0,0,0,0,5],[0,1,0,0,-5],[1,0,0,0,5],[1,1,0,0,-5]];perimeter=orthogonalPerimeter;outlineConnect=0;targetShapes=umlLifeline;portConstraint=eastwest;newEdgeStyle={&quot;curved&quot;:0,&quot;rounded&quot;:0};" parent="rGS-oAtr6ewYJkWfsGXD-14" vertex="1">
          <mxGeometry x="95" y="510" width="10" height="60" as="geometry" />
        </mxCell>
        <mxCell id="rGS-oAtr6ewYJkWfsGXD-21" value="insert the order with the given idempotency key" style="html=1;verticalAlign=bottom;endArrow=block;curved=0;rounded=0;" parent="1" edge="1">
          <mxGeometry width="80" relative="1" as="geometry">
            <mxPoint x="247.5" y="610" as="sourcePoint" />
            <mxPoint x="490" y="610" as="targetPoint" />
          </mxGeometry>
        </mxCell>
        <mxCell id="sOFYRpzdBCBaHL9NWIlL-1" value="select current orders of the logged in user" style="html=1;verticalAlign=bottom;endArrow=block;curved=0;rounded=0;" edge="1" parent="1" target="rGS-oAtr6ewYJkWfsGXD-15">
          <mxGeometry width="80" relative="1" as="geometry">
            <mxPoint x="250" y="220" as="sourcePoint" />
            <mxPoint x="435" y="220" as="targetPoint" />
          </mxGeometry>
        </mxCell>
        <mxCell id="sOFYRpzdBCBaHL9NWIlL-2" value="list of current orders" style="html=1;verticalAlign=bottom;endArrow=open;dashed=1;endSize=8;curved=0;rounded=0;" edge="1" parent="1" source="rGS-oAtr6ewYJkWfsGXD-15">
          <mxGeometry x="0.1003" relative="1" as="geometry">
            <mxPoint x="440.33000000000004" y="300" as="sourcePoint" />
            <mxPoint x="249.99666666666664" y="300" as="targetPoint" />
            <mxPoint as="offset" />
          </mxGeometry>
        </mxCell>
        <mxCell id="sOFYRpzdBCBaHL9NWIlL-13" value="select the key for the logged in user" style="html=1;verticalAlign=bottom;endArrow=block;curved=0;rounded=0;" edge="1" parent="1" target="rGS-oAtr6ewYJkWfsGXD-9">
          <mxGeometry x="0.4433" width="80" relative="1" as="geometry">
            <mxPoint x="250" y="350" as="sourcePoint" />
            <mxPoint x="330" y="350" as="targetPoint" />
            <mxPoint as="offset" />
          </mxGeometry>
        </mxCell>
        <mxCell id="sOFYRpzdBCBaHL9NWIlL-14" value="idempotency&amp;nbsp;key" style="html=1;verticalAlign=bottom;endArrow=open;dashed=1;endSize=8;curved=0;rounded=0;" edge="1" parent="1" source="rGS-oAtr6ewYJkWfsGXD-9" target="j03y-zVPpwKG8_fTDFgy-7">
          <mxGeometry x="-0.4882" relative="1" as="geometry">
            <mxPoint x="495" y="310" as="sourcePoint" />
            <mxPoint x="250" y="320" as="targetPoint" />
            <mxPoint as="offset" />
            <Array as="points">
              <mxPoint x="490" y="380" />
            </Array>
          </mxGeometry>
        </mxCell>
        <mxCell id="sOFYRpzdBCBaHL9NWIlL-17" value="alt" style="shape=umlFrame;whiteSpace=wrap;html=1;pointerEvents=0;width=40;height=20;" vertex="1" parent="1">
          <mxGeometry x="-100" y="570" width="900" height="300" as="geometry" />
        </mxCell>
        <mxCell id="sOFYRpzdBCBaHL9NWIlL-18" value="[ an order with the given idempotency key does not exist ]" style="text;html=1;strokeColor=none;fillColor=none;align=center;verticalAlign=middle;whiteSpace=wrap;rounded=0;" vertex="1" parent="1">
          <mxGeometry x="-80" y="600" width="100" height="80" as="geometry" />
        </mxCell>
        <mxCell id="sOFYRpzdBCBaHL9NWIlL-19" value="generate and insert a new idempotency key" style="html=1;verticalAlign=bottom;endArrow=block;curved=0;rounded=0;" edge="1" parent="1" source="rGS-oAtr6ewYJkWfsGXD-3" target="sOFYRpzdBCBaHL9NWIlL-20">
          <mxGeometry x="0.4898" width="80" relative="1" as="geometry">
            <mxPoint x="492.5" y="660" as="sourcePoint" />
            <mxPoint x="735" y="660" as="targetPoint" />
            <Array as="points">
              <mxPoint x="490" y="670" />
            </Array>
            <mxPoint as="offset" />
          </mxGeometry>
        </mxCell>
        <mxCell id="sOFYRpzdBCBaHL9NWIlL-20" value="" style="html=1;points=[[0,0,0,0,5],[0,1,0,0,-5],[1,0,0,0,5],[1,1,0,0,-5]];perimeter=orthogonalPerimeter;outlineConnect=0;targetShapes=umlLifeline;portConstraint=eastwest;newEdgeStyle={&quot;curved&quot;:0,&quot;rounded&quot;:0};" vertex="1" parent="1">
          <mxGeometry x="735" y="650" width="10" height="70" as="geometry" />
        </mxCell>
        <mxCell id="sOFYRpzdBCBaHL9NWIlL-22" value="" style="html=1;verticalAlign=bottom;endArrow=open;dashed=1;endSize=8;curved=0;rounded=0;" edge="1" parent="1" target="rGS-oAtr6ewYJkWfsGXD-3">
          <mxGeometry x="-0.4882" relative="1" as="geometry">
            <mxPoint x="490" y="630" as="sourcePoint" />
            <mxPoint x="255" y="390" as="targetPoint" />
            <mxPoint as="offset" />
            <Array as="points" />
          </mxGeometry>
        </mxCell>
        <mxCell id="sOFYRpzdBCBaHL9NWIlL-23" value="" style="html=1;verticalAlign=bottom;endArrow=open;dashed=1;endSize=8;curved=0;rounded=0;" edge="1" parent="1" source="sOFYRpzdBCBaHL9NWIlL-20" target="rGS-oAtr6ewYJkWfsGXD-3">
          <mxGeometry x="-0.4882" relative="1" as="geometry">
            <mxPoint x="745" y="640" as="sourcePoint" />
            <mxPoint x="255" y="640" as="targetPoint" />
            <mxPoint as="offset" />
            <Array as="points">
              <mxPoint x="500" y="700" />
            </Array>
          </mxGeometry>
        </mxCell>
        <mxCell id="sOFYRpzdBCBaHL9NWIlL-25" value="" style="endArrow=none;dashed=1;html=1;rounded=0;entryX=1.003;entryY=0.571;entryDx=0;entryDy=0;entryPerimeter=0;exitX=0.001;exitY=0.571;exitDx=0;exitDy=0;exitPerimeter=0;" edge="1" parent="1" source="sOFYRpzdBCBaHL9NWIlL-17" target="sOFYRpzdBCBaHL9NWIlL-17">
          <mxGeometry width="50" height="50" relative="1" as="geometry">
            <mxPoint x="90" y="740" as="sourcePoint" />
            <mxPoint x="330" y="790" as="targetPoint" />
            <Array as="points" />
          </mxGeometry>
        </mxCell>
        <mxCell id="sOFYRpzdBCBaHL9NWIlL-26" value="[ else ]" style="text;html=1;strokeColor=none;fillColor=none;align=center;verticalAlign=middle;whiteSpace=wrap;rounded=0;" vertex="1" parent="1">
          <mxGeometry x="-90" y="760" width="50" height="30" as="geometry" />
        </mxCell>
        <mxCell id="sOFYRpzdBCBaHL9NWIlL-27" value="409 OK" style="html=1;verticalAlign=bottom;endArrow=open;dashed=1;endSize=8;curved=0;rounded=0;" edge="1" parent="1" source="rGS-oAtr6ewYJkWfsGXD-3" target="GNlN6wgSxDxKtk2pPhx4-1">
          <mxGeometry x="0.1003" relative="1" as="geometry">
            <mxPoint x="245" y="735" as="sourcePoint" />
            <mxPoint x="50" y="735" as="targetPoint" />
            <mxPoint as="offset" />
            <Array as="points">
              <mxPoint x="150" y="800" />
            </Array>
          </mxGeometry>
        </mxCell>
      </root>
    </mxGraphModel>
  </diagram>
</mxfile>
